<svg width="562" height="525" viewBox="0 0 562 525" fill="none" xmlns="http://www.w3.org/2000/svg">
<circle cx="286" cy="246" r="81" stroke="black" stroke-width="30"/>
<circle cx="75" cy="75" r="65" stroke="#45ABEB" stroke-width="20"/>
<circle cx="491.5" cy="364.5" r="60.5" stroke="#45ABEB" stroke-width="20"/>
<circle cx="376" cy="61" r="33.5" stroke="#B1E7FC" stroke-width="23"/>
<circle cx="75" cy="297" r="33.5" stroke="#B1E7FC" stroke-width="23"/>
<circle cx="120" cy="480" r="33.5" stroke="#B1E7FC" stroke-width="23"/>
<rect x="147.794" y="120.763" width="109.088" height="15.5955" rx="7.79774" transform="rotate(39.2641 147.794 120.763)" fill="black"/>
<rect x="125" y="278.929" width="89.1774" height="15.5955" rx="7.79774" transform="rotate(-13.5731 125 278.929)" fill="black"/>
<rect x="245.158" y="321.931" width="149.08" height="15.5955" rx="7.79774" transform="rotate(124.936 245.158 321.931)" fill="black"/>
<rect x="364.777" y="111.11" width="73.3701" height="15.5955" rx="7.79774" transform="rotate(109.129 364.777 111.11)" fill="black"/>
<rect x="417.437" y="334.168" width="73.3701" height="15.5955" rx="7.79774" transform="rotate(-146.861 417.437 334.168)" fill="black"/>
</svg>
